<svg width="123" height="39" viewBox="0 0 123 39" fill="none" xmlns="http://www.w3.org/2000/svg">
<g clip-path="url(#clip0_3_384)">
<path d="M62.2768 0.278809V0.818775C61.6537 0.818775 60.7862 1.54542 60.4196 2.48083L56.126 17.0418H54.8177L50.0593 4.89963L46.509 17.0418H45.4471L39.5768 2.4467C39.2181 1.48921 38.4047 0.824797 38 0.824797V0.278809H44.2631V0.818775C43.8042 0.818775 43.0189 1.52334 43.5057 2.90638L47.2343 11.9071L50.45 0.280812H52.3934L56.8974 11.9232L59.6262 2.56513C59.9608 1.58556 59.3657 0.820778 58.8107 0.820778V0.280812H62.2849L62.2768 0.278809Z" fill="black"/>
<path d="M72.6247 10.8275C72.6247 14.7257 70.3026 17.1646 66.7623 17.1646C64.0375 17.1646 60.896 14.7237 60.896 10.8275C60.896 6.69849 63.2461 4.51855 66.7623 4.51855C70.2785 4.51855 72.6247 7.24448 72.6247 10.8275ZM68.7358 10.0487C67.9524 7.42714 66.4778 5.11472 65.1896 5.43188C63.9013 5.74903 64.1638 8.91255 64.9532 11.2691C65.8187 13.8465 67.3574 16.5584 68.7979 16.0405C70.2385 15.5226 69.5132 12.6542 68.7358 10.0487Z" fill="black"/>
<path d="M79.2446 16.2413V16.9459H73.0176V16.2413C73.9512 16.165 74.2037 15.6391 74.2037 14.6515V3.67957C74.2037 2.69398 73.9512 2.18813 73.0176 2.11386V0.977727L77.0747 0.156738H78.0585V14.6515C78.0585 15.6371 78.3109 16.167 79.2446 16.2413Z" fill="black"/>
<path d="M86.7681 3.54291C85.9046 2.91462 85.9366 0.704574 85.2955 0.686508C84.2076 0.654392 84.462 3.79784 84.462 5.66062H85.9687V6.41135H84.5101V14.8922C84.5101 15.7995 84.7465 16.2873 85.6221 16.3576V16.9598H80.2125V16.3576C81.0861 16.2873 81.3245 15.7995 81.3245 14.8922V6.41135H79.7417V5.65861C81.034 5.65861 81.5629 5.06645 81.5629 3.95842C81.5629 2.0575 82.8131 0.359318 84.5682 0.0722724C86.5717 -0.260941 88.1986 0.550012 88.7416 2.33652C89.0161 3.23579 87.6757 4.20933 86.7681 3.54291Z" fill="black"/>
<path d="M45.0604 38.1106H39.3203V37.5506C40.26 37.5506 40.4463 36.294 40.4463 35.3586V24.3184C40.4463 23.383 40.2059 22.0802 39.3203 21.9819V21.3154H50.9569L51.3936 25.9322H50.7926C50.1915 23.8747 48.0197 21.9638 45.934 21.9638H45.0404C44.7303 21.9643 44.4329 22.088 44.2136 22.3077C43.9943 22.5275 43.8709 22.8253 43.8703 23.1361V29.3447H45.926C47.054 29.3447 48.0317 28.5197 48.0317 27.5642H48.6067V31.7093H48.0357C48.0357 30.6715 47.1642 29.9308 45.93 29.9308H43.8744V35.491C43.8744 36.4666 44.0747 37.5265 45.0604 37.5265V38.1106Z" fill="black"/>
<path d="M57.1635 37.3518V37.9882H51.8301V37.3518C52.6996 37.2816 52.926 36.8038 52.926 35.9106V28.7545C52.926 27.8613 52.6996 27.3795 51.8301 27.3113V26.6127L55.2702 25.8219H56.0896V35.9106C56.0896 36.8038 56.318 37.2816 57.1635 37.3518ZM52.6555 23.0457C52.6559 22.681 52.7643 22.3245 52.9668 22.0214C53.1694 21.7183 53.4571 21.4822 53.7936 21.3429C54.13 21.2036 54.5002 21.1673 54.8572 21.2387C55.2143 21.3101 55.5422 21.486 55.7995 21.744C56.0568 22.0021 56.2319 22.3308 56.3028 22.6886C56.3737 23.0464 56.3371 23.4172 56.1977 23.7542C56.0583 24.0911 55.8223 24.3791 55.5195 24.5817C55.2168 24.7843 54.8609 24.8925 54.4968 24.8925C54.2548 24.8925 54.0152 24.8447 53.7917 24.7519C53.5682 24.659 53.3651 24.523 53.1941 24.3515C53.0231 24.1799 52.8875 23.9764 52.7951 23.7523C52.7027 23.5283 52.6553 23.2882 52.6555 23.0457Z" fill="black"/>
<path d="M71.0181 37.3176V37.9901H65.2079V37.3176C66.0974 37.2413 66.1215 36.5649 66.1215 35.5813V29.5975C66.1215 27.7327 65.4383 26.6668 64.4766 26.9519C63.9076 27.1205 62.5612 28.5577 62.5612 29.7521V35.5733C62.5612 36.5568 62.5852 37.2333 63.4768 37.3096V37.982H57.8389V37.3096C58.7304 37.2333 58.9709 36.7074 58.9709 35.7258V29.1017C58.9709 28.1201 58.7304 27.5922 57.8389 27.5159V26.9358L61.902 25.8258H62.8156V27.261C63.5497 26.3756 64.5913 25.8018 65.7308 25.6551C69.0086 25.2176 69.9202 27.1727 69.8881 29.2502V35.7399C69.8881 36.7154 70.1285 37.2413 71.0181 37.3176Z" fill="black"/>
<path d="M82.3703 37.0914C82.0507 37.4412 81.6636 37.7224 81.2325 37.918C80.8013 38.1136 80.335 38.2196 79.8618 38.2295C79.6416 38.231 79.4233 38.1879 79.2201 38.1029C79.0168 38.0178 78.8328 37.8925 78.679 37.7345C78.5253 37.5765 78.4049 37.3891 78.3252 37.1834C78.2454 36.9777 78.2079 36.7579 78.2149 36.5374C77.0489 37.7418 76.4578 37.9867 75.3519 38.1994C73.2982 38.6009 71.6914 37.1516 71.6914 35.4253C71.6914 32.85 73.9935 31.6235 77.7902 29.8811C77.7902 29.3914 77.8062 28.3074 77.7902 27.7695C77.7641 26.7658 77.6339 26.1034 77.0869 26.0351C76.54 25.9669 76.0852 26.4185 75.3779 27.8598C74.4403 29.7467 73.3744 29.6282 72.8695 29.4415C72.2284 29.2007 71.9258 28.3415 73.0558 27.0328C74.1137 25.8143 75.5943 25.4751 77.2192 25.4751C79.5272 25.4751 80.8255 26.7839 80.8255 28.7209V36.3367C80.8255 37.242 81.6029 36.8646 82.0697 36.5554L82.3703 37.0914ZM77.7962 30.4673C77.3534 30.656 75.3238 31.778 74.7909 33.0306C74.1477 34.5341 74.8831 37.0452 76.3617 37.0452C77.0809 37.0452 77.3634 36.706 77.7982 36.0416L77.7962 30.4673Z" fill="black"/>
<path d="M96.1163 37.3176V37.9901H90.306V37.3176C91.1956 37.2413 91.2216 36.5649 91.2216 35.5813V29.5975C91.2216 27.7327 90.5364 26.6668 89.5747 26.9519C89.0057 27.1205 87.6593 28.5577 87.6593 29.7521V35.5733C87.6593 36.5568 87.6854 37.2333 88.577 37.3096V37.982H82.937V37.3096C83.8286 37.2333 84.069 36.7074 84.069 35.7258V29.1017C84.069 28.1201 83.8266 27.5922 82.937 27.5159V26.9358L86.9982 25.8258H87.9138V27.261C88.6467 26.3753 89.6879 25.8013 90.8269 25.6551C94.1047 25.2176 95.0163 27.1727 94.9843 29.2502V35.7399C94.9843 36.7154 95.2247 37.2413 96.1163 37.3176Z" fill="black"/>
<path d="M100.216 32.0024C100.216 34.65 101.5 36.6192 103.327 36.9544C105.154 37.2896 106.002 36.5409 106.435 36.1013C106.555 35.9768 106.721 36.2759 106.635 36.4205C106.034 37.3378 104.523 38.3535 103.029 38.3535C99.1518 38.3535 96.6514 36.29 96.6514 31.9883C96.6514 27.9275 99.4563 25.5469 102.578 25.5469C104.87 25.5469 105.984 26.2554 106.759 27.4699C107.376 28.4735 107.302 29.2243 106.559 29.431C105.854 29.6317 105.357 29.5254 104.838 28.2387C104.169 26.5726 103.479 26.1611 102.528 26.2314C101.274 26.3337 100.216 29.5735 100.216 32.0024Z" fill="black"/>
<path d="M118.676 31.4667H111.834C111.834 34.4897 114.238 37.0571 117.985 35.2164L118.346 35.5596C117.482 37.2136 115.603 38.0788 114.072 38.2193C110.812 38.5204 107.647 35.3328 107.891 31.2379C108.114 27.6368 110.921 25.6274 113.844 25.6274C119.009 25.6274 118.678 31.4687 118.676 31.4667ZM115.204 29.8609C115.11 28.2911 114.317 26.4484 113.401 26.4484C112.343 26.4484 111.816 28.2791 111.816 30.8645H114.262C114.391 30.8647 114.518 30.8386 114.636 30.7877C114.754 30.7368 114.861 30.6623 114.949 30.5686C115.037 30.475 115.105 30.3642 115.149 30.2432C115.193 30.1222 115.212 29.9934 115.204 29.8649V29.8609Z" fill="black"/>
<path d="M122.992 36.5733C122.992 36.5733 122.992 36.5853 122.992 36.5934C122.996 36.8209 122.956 37.047 122.876 37.2598C122.793 37.4702 122.665 37.6599 122.501 37.8158C122.34 37.9699 122.149 38.09 121.94 38.1691C121.724 38.2464 121.495 38.2851 121.265 38.2835C120.826 38.2876 120.399 38.1337 120.063 37.8499C119.887 37.7002 119.75 37.5101 119.662 37.2959C119.581 37.0937 119.54 36.8776 119.54 36.6596C119.539 36.4407 119.582 36.2239 119.664 36.0213C119.75 35.8168 119.872 35.6297 120.025 35.4693C120.182 35.2874 120.379 35.1456 120.602 35.0558C120.816 34.9712 121.043 34.9276 121.273 34.9273C121.499 34.9256 121.722 34.9699 121.93 35.0578C122.129 35.1467 122.313 35.2644 122.477 35.407C122.636 35.5665 122.767 35.751 122.866 35.953C122.953 36.1483 122.999 36.3595 123 36.5733H122.992Z" fill="black"/>
</g>
<circle cx="15.5" cy="19.5" r="15.5" fill="black"/>
<path d="M13.976 14.6892C10.97 15.8928 7.08375 17.9011 6.14319 21.0749C9.36745 19.3484 13.0423 18.7492 16.6075 19.3684C19.2149 17.2271 21.1629 14.3528 22.2112 11.1003C19.7692 13.2673 16.9779 13.4799 13.976 14.6892Z" fill="white"/>
<path d="M15.2987 18.102C12.2927 19.3055 8.4065 21.3138 7.46594 24.4876C10.6902 22.7612 14.3651 22.1619 17.9302 22.7812C20.5376 20.6398 22.4857 17.7656 23.534 14.513C21.0919 16.68 18.3007 16.8926 15.2987 18.102Z" fill="white"/>
<path d="M16.621 21.5138C13.615 22.7174 9.72877 24.7257 8.78821 27.8995C12.0125 26.1731 15.6873 25.5738 19.2525 26.1931C21.8599 24.0517 23.8079 21.1775 24.8562 17.9249C22.4142 20.0919 19.6229 20.3045 16.621 21.5138Z" fill="white"/>
<defs>
<clipPath id="clip0_3_384">
<rect width="85" height="38.3537" fill="white" transform="translate(38)"/>
</clipPath>
</defs>
</svg>
